# xmcd
#
# Track frame offsets: 
#        150
#        14310
#        29622
#        43950
#        60422
#        90220
#
# Disc length: 4440 seconds
#
# Revision: 0
# Processed by: cddbd v1.5PL3 Copyright (c) Steve Scherf et al.
# Submitted via: ExactAudioCopy v0.95a3
#
DISCID=41115606
DTITLE=The Thrills - Big Sur
DYEAR=2003
DGENRE=Rock
TTITLE0=Big Sur
TTITLE1=Nobody Likes To Be Upstaged
TTITLE2=Your Love Is Like Las Vegas (Acoustic Version)
TTITLE3=Last Night I Dreamt That Somebody Loved Me
TTITLE4=Santa Cruz (You're Not That Far) (Acoustic Version)
TTITLE5=data
EXTD=
EXTT0=
EXTT1=
EXTT2=
EXTT3=
EXTT4=
EXTT5=
PLAYORDER=
